<?xml version="1.0" encoding="utf-8"?>
<!-- Generator: Adobe Illustrator 21.0.0, SVG Export Plug-In . SVG Version: 6.00 Build 0)  -->
<svg version="1.1" id="Calque_1" xmlns="http://www.w3.org/2000/svg" xmlns:xlink="http://www.w3.org/1999/xlink" x="0px" y="0px"
	 viewBox="0 0 495.2 168.7" style="enable-background:new 0 0 495.2 168.7;" xml:space="preserve">
<style type="text/css">
	.st0{fill:url(#SVGID_1_);}
	.st1{fill:#00AF41;}
	.st2{fill:#00259A;}
</style>
<g>
	<radialGradient id="SVGID_1_" cx="117.7879" cy="49.1327" r="86.8518" gradientUnits="userSpaceOnUse">
		<stop  offset="0" style="stop-color:#FFFFFF"/>
		<stop  offset="0.6032" style="stop-color:#00AF41"/>
	</radialGradient>
	<path class="st0" d="M80.4,40.4c-26.3,0-47.5,21.3-47.5,47.5c0,9.7,2.9,18.6,7.8,26.1l-4.1,11.7l7.5-7.1l37.9-37.5l-22.1-22
		c0,0,14.1,3.9,27.8,16.2l2.6-2.5l4.6,5.1l-2.3,2.3c0,0,11.2,10.2,16,27.8L87.1,86.3L50.1,123l5.4,4.9l8.1-9l10.9,0.2l7.7-7.9
		l7.6,0.2l15.8,16.9c13.4-8.4,22.4-23.3,22.4-40.3C128,61.7,106.7,40.4,80.4,40.4z"/>
	<g>
		<g>
			<path class="st1" d="M156.7,55.7v32.8h-11.3V64.4h-4.8v-8.7H156.7z M145.4,42.8h11.3v9h-11.3V42.8z"/>
			<path class="st1" d="M203,63.1c-0.7,0-1.5,0.1-2.4,0.2c-0.9,0.1-1.7,0.3-2.4,0.4c-0.9,0.2-1.7,0.4-2.6,0.6v24.1h-11.3V65.3
				c0-0.6-0.2-1.2-0.6-1.6c-0.4-0.4-1-0.6-1.6-0.6h-0.3c-0.7,0-1.5,0.1-2.4,0.2c-0.9,0.1-1.7,0.3-2.4,0.4c-0.9,0.2-1.7,0.4-2.6,0.6
				v24.1h-11.3V54.4h10l0.6,3.2c1.1-0.7,2.3-1.4,3.6-1.9c1.1-0.5,2.4-0.9,3.7-1.3c1.4-0.4,2.8-0.6,4.2-0.6h0.6
				c1.9,0,3.5,0.4,4.9,1.1c1.3,0.7,2.4,1.7,3.2,2.8c1.1-0.7,2.3-1.4,3.6-1.9c1.1-0.5,2.4-0.9,4-1.3c1.5-0.4,3.2-0.6,5-0.6h0.6
				c2.9,0,5.3,0.9,7,2.6c1.8,1.8,2.6,4.1,2.6,7v25.1h-11.3V65.3c0-0.6-0.2-1.2-0.6-1.6c-0.4-0.4-1-0.6-1.6-0.6H203z"/>
			<path class="st1" d="M222,64c0-3.2,0.9-5.7,2.7-7.5c1.8-1.8,4.3-2.7,7.6-2.7h12.9c3.2,0,5.7,0.9,7.6,2.7c1.8,1.8,2.7,4.3,2.7,7.6
				v11.9h-22.2v2.4c0,0.6,0.2,1.1,0.6,1.5c0.4,0.4,1,0.6,1.6,0.6c1.8,0,3.8,0,6,0c2.2,0,4.2,0,6.1,0c2.2-0.2,4.4-0.5,6.6-0.7v8.1
				c-2.5,0.3-5,0.5-7.7,0.5c-2.2,0.4-4.7,0.6-7.3,0.6c-2.6,0-5.1,0-7.6,0c-2.9,0-5.3-0.9-7-2.6c-1.8-1.7-2.6-4.1-2.6-7V64z
				 M235.8,61.8c-1.7,0-2.6,0.9-2.6,2.6v3.5h10.9v-3.5c0-1.7-0.9-2.6-2.6-2.6H235.8z"/>
			<path class="st1" d="M271.2,54.4l0.6,3.2c1.1-0.7,2.3-1.4,3.6-1.9c1.1-0.5,2.4-0.9,3.7-1.3c1.4-0.4,2.8-0.6,4.2-0.6h2.9
				c2.9,0,5.3,0.9,7,2.6c1.8,1.8,2.6,4.1,2.6,7v25.1h-11.3V65.3c0-0.6-0.2-1.2-0.6-1.6c-0.4-0.4-1-0.6-1.6-0.6h-2.3
				c-0.8,0-1.7,0.1-2.6,0.2c-0.9,0.1-1.7,0.3-2.5,0.4c-0.9,0.2-1.8,0.4-2.6,0.6v24.1h-11.3V54.4H271.2z"/>
			<path class="st1" d="M301.1,64c0-3.2,0.9-5.7,2.7-7.5c1.8-1.8,4.3-2.7,7.6-2.7h12.9c3.2,0,5.7,0.9,7.6,2.7
				c1.8,1.8,2.7,4.3,2.7,7.6v11.9h-22.2v2.4c0,0.6,0.2,1.1,0.6,1.5c0.4,0.4,1,0.6,1.6,0.6c1.8,0,3.8,0,6,0c2.2,0,4.2,0,6.1,0
				c2.2-0.2,4.4-0.5,6.6-0.7v8.1c-2.5,0.3-5,0.5-7.7,0.5c-2.2,0.4-4.7,0.6-7.3,0.6c-2.6,0-5.1,0-7.6,0c-2.9,0-5.3-0.9-7-2.6
				c-1.8-1.7-2.6-4.1-2.6-7V64z M315,61.8c-1.7,0-2.6,0.9-2.6,2.6v3.5h10.9v-3.5c0-1.7-0.9-2.6-2.6-2.6H315z"/>
		</g>
		<g>
			<g>
				<path class="st2" d="M160.1,112.9l-4.5,8.1H151l-4.5-8.1v12.7h-5.8v-22.7h6.2l6.5,12l6.5-12h6.2v22.7h-5.8V112.9z"/>
				<path class="st2" d="M180.6,125.5h-11.7V121h2.9v-13.6h-2.9v-4.6h11.7v4.6h-2.9V121h2.9V125.5z"/>
				<path class="st2" d="M203.3,125.5h-6.2l-7.8-13.6v13.6h-5.8v-22.7h6.2l7.8,13.6v-13.6h5.8V125.5z"/>
				<path class="st2" d="M225.2,125.5h-18v-22.7h18v4.6H213v4.4h9.6v4.5H213v4.7h12.2V125.5z"/>
				<path class="st2" d="M227.8,102.8h13.6c2.3,0,3.9,0.5,5,1.5c1,1,1.5,2.7,1.5,5v2.9c0,1.8-0.3,3.2-0.9,4.2c-0.6,1-1.5,1.7-2.8,2
					l4.1,7.1H242l-3.7-6.8h-4.5v6.8h-5.8V102.8z M242.1,109.3c0-1.3-0.6-1.9-1.9-1.9h-6.5v6.8h6.5c1.3,0,1.9-0.7,1.9-1.9V109.3z"/>
				<path class="st2" d="M255.3,125.5h-6.3l8.6-22.7h6.5l8.6,22.7h-6.3l-1.5-4.1h-8.1L255.3,125.5z M258.2,117.3h5.2l-2.6-7.6
					L258.2,117.3z"/>
				<path class="st2" d="M280.1,121H292v4.5h-17.7v-22.7h5.8V121z"/>
				<path class="st2" d="M322,125.5h-18v-22.7h18v4.6h-12.2v4.4h9.6v4.5h-9.6v4.7H322V125.5z"/>
				<path class="st2" d="M337.8,102.8h6.5l-7.3,11.4l7.5,11.4H338l-4.5-7.1l-4.5,7.1h-6.5l7.5-11.4l-7.3-11.4h6.5l4.4,7.1
					L337.8,102.8z"/>
				<path class="st2" d="M346.1,102.8h13.6c2.3,0,3.9,0.5,5,1.5c1,1,1.5,2.7,1.5,5v3.2c0,2.3-0.5,3.9-1.5,5c-1,1-2.7,1.5-5,1.5h-7.8
					v6.5h-5.8V102.8z M360.4,109.3c0-1.3-0.6-1.9-1.9-1.9h-6.5v7.1h6.5c1.3,0,1.9-0.7,1.9-2V109.3z"/>
				<path class="st2" d="M389.6,119.4c0,2.3-0.5,3.9-1.5,5c-1,1-2.7,1.5-5,1.5H375c-2.3,0-3.9-0.5-5-1.5c-1-1-1.5-2.7-1.5-5V109
					c0-2.3,0.5-3.9,1.5-5c1-1,2.7-1.5,5-1.5h8.1c2.3,0,3.9,0.5,5,1.5c1,1,1.5,2.7,1.5,5V119.4z M383.8,109c0-1.3-0.6-1.9-1.9-1.9
					h-5.5c-1.3,0-1.9,0.6-1.9,1.9v10.4c0,1.3,0.7,1.9,1.9,1.9h5.5c1.3,0,1.9-0.7,1.9-1.9V109z"/>
				<path class="st2" d="M392.9,102.8h13.6c2.3,0,3.9,0.5,5,1.5c1,1,1.5,2.7,1.5,5v2.9c0,1.8-0.3,3.2-0.9,4.2c-0.6,1-1.5,1.7-2.8,2
					l4.1,7.1H407l-3.7-6.8h-4.5v6.8h-5.8V102.8z M407.2,109.3c0-1.3-0.6-1.9-1.9-1.9h-6.5v6.8h6.5c1.3,0,1.9-0.7,1.9-1.9V109.3z"/>
				<path class="st2" d="M427.3,125.5h-5.8v-18.2h-6.8v-4.6h19.5v4.6h-6.8V125.5z"/>
				<path class="st2" d="M441.3,109.9c0,1.3,0.7,2,1.9,2h5.8c2.1,0,3.7,0.5,4.7,1.5c1,1,1.5,2.5,1.5,4.6v1.6c0,2.1-0.5,3.6-1.5,4.6
					s-2.6,1.5-4.7,1.5c-0.7,0-1.3,0-2.1,0s-1.5,0-2.2,0c-0.7,0-1.5,0-2.2,0c-0.7,0-1.5,0-2.1,0c-1.6,0-3.2-0.1-4.7-0.4v-4.2
					c1.6,0,3.1,0,4.6,0c1.3,0,2.6,0,4,0c1.4,0,2.5,0,3.5,0c0.5,0,0.9-0.1,1.2-0.4s0.4-0.6,0.4-1.1v-2.8h-7.5c-2.3,0-3.9-0.5-5-1.5
					c-1-1-1.5-2.7-1.5-5v-1c0-2.3,0.5-3.9,1.5-5c1-1,2.7-1.5,5-1.5h11.4v4.6h-10.1c-1.3,0-1.9,0.6-1.9,1.9V109.9z"/>
			</g>
			<g>
				<polygon class="st2" points="379.6,91.1 379.6,91.1 379.5,91.1 				"/>
				<path class="st2" d="M462,51.7c-1.2-1.4-2.3-3.1-3.8-4.2c-4.5-3.6-9.8-4.8-15.5-4.5c-6.8,0.3-13,2.4-18.4,6.5
					c-6.3,4.8-10.4,10.8-11.7,18.1c-0.1-0.3-0.2-0.5-0.4-0.8c-0.9-1.6-2.2-2.8-3.8-3.8c-2-1.3-4-2.6-6-3.9c-1.1-0.7-2.1-1.5-2.9-2.6
					c-0.7-0.9-1.1-1.9-1-3c0.1-0.9,0.4-1.7,0.8-2.4c1.1-2,2.8-3.1,5-3.4c1.2-0.2,2.5-0.1,3.7,0c1.2,0.1,2.3,0.2,3.5,0.4
					c1.4,0.2,2.8,0.5,4.3,0.8c0.1,0,0.2,0,0.4,0.1c0.5-1.6,0.9-3.1,1.4-4.7c-0.3-0.1-0.5-0.1-0.8-0.2c-1.6-0.3-3.2-0.5-4.9-0.7
					c-1.2-0.2-2.4-0.2-3.6-0.3c-0.1,0-0.3,0-0.4-0.1c-0.5,0-1,0-1.6,0c-0.3,0-0.5,0.1-0.8,0.1c-4.8,0.2-9.2,1.6-13.1,4.5
					c-1,0.7-1.8,1.6-2.6,2.5l1.9-7h-13.2L371.6,68h-11.7l6.7-25.2h-13.2L346.5,68H342l-2.1,8h4.5L341,88.5h13.4l3.4-12.6h11.7
					L366,88.5c5.9-3.9,13.7-1.8,13.7-1.8l0.2,0l0,0c0.6,0.1,1.2,0.3,1.8,0.4c1.8,0.5,3.7,0.8,5.6,1.1c1.9,0.2,3.8,0.3,5.8,0.2
					c3.1-0.2,6.1-0.7,8.9-1.9c2.4-1,4.6-2.2,6.5-4c1.8-1.7,3.1-3.8,4-6.1c1.1,4.9,4.5,8.8,9.3,10.8c5.4,2.2,10.9,2.3,16.5,1.1
					c6.9-1.5,12.3-5.4,16.8-10.6c0.3-0.4,0.4-0.7,0-1.1c-0.9-0.8-1.9-1.6-2.8-2.3c-1,0.9-1.9,1.6-2.7,2.5c-4.1,4.3-9.1,6.4-15.1,5.9
					c-1.9-0.2-3.7-0.7-5.2-1.9c-2.6-2-3.5-4.8-3.6-7.9c-0.2-3.7,0.6-7.2,2.2-10.5c2.4-5,5.8-9.2,10.9-11.7
					c5.4-2.6,11.1-1.5,14.6,2.9c0.9,1.1,1.5,2.4,2.3,3.7c2-1.4,4.1-2.9,6.2-4.2C462.4,52.7,462.5,52.2,462,51.7z M401.3,77.9
					c-0.4,1-0.8,1.9-1.4,2.8c-1,1.2-2.2,2-3.7,2.3c-1.6,0.4-3.2,0.4-4.8,0.4c-3.5-0.1-6.8-0.9-10-2.1c0,0,0,0-0.1,0l5.6-21.2
					c0.3,1.4,1,2.7,1.9,3.9c1,1.2,2.2,2.1,3.4,3c1.8,1.3,3.7,2.5,5.5,3.8c1.2,0.8,2.3,1.8,3.1,3C401.7,75.2,401.9,76.5,401.3,77.9z"
					/>
			</g>
		</g>
	</g>
</g>
</svg>
